<?xml version="1.0" standalone="no"?>
<!DOCTYPE svg PUBLIC "-//W3C//DTD SVG 20010904//EN"
 "http://www.w3.org/TR/2001/REC-SVG-20010904/DTD/svg10.dtd">
<svg version="1.0" xmlns="http://www.w3.org/2000/svg"
 width="512.000000pt" height="512.000000pt" viewBox="0 0 512.000000 512.000000"
 preserveAspectRatio="xMidYMid meet">

<g transform="translate(0.000000,512.000000) scale(0.100000,-0.100000)"
fill="#000000" stroke="none">
<path d="M1715 5109 c-210 -22 -427 -84 -625 -180 -605 -292 -1007 -865 -1081
-1540 -14 -127 -6 -380 16 -504 82 -465 324 -882 678 -1169 469 -378 1056
-518 1636 -390 283 63 582 210 800 392 40 34 76 62 80 62 3 0 402 -396 886
-880 484 -484 891 -884 906 -889 62 -22 121 43 94 105 -7 16 -407 423 -889
904 -482 481 -876 878 -876 881 0 4 28 40 62 80 90 108 181 251 247 391 379
795 176 1735 -494 2296 -402 337 -920 495 -1440 441z m492 -169 c391 -67 716
-238 988 -522 132 -138 220 -263 304 -433 74 -149 121 -282 151 -431 140 -680
-136 -1380 -705 -1789 -113 -82 -337 -194 -477 -240 -201 -65 -306 -80 -548
-79 -194 0 -227 3 -341 27 -606 128 -1083 533 -1305 1107 -77 201 -109 382
-108 625 0 204 14 312 61 475 191 664 750 1159 1430 1264 139 22 408 20 550
-4z"/>
<path d="M1085 4468 c-90 -16 -207 -81 -279 -154 -76 -75 -138 -190 -155 -288
-7 -39 -11 -347 -11 -898 l0 -839 25 -24 c29 -30 74 -32 106 -6 l24 19 5 869
5 868 32 67 c44 93 100 151 191 196 l76 37 869 5 869 5 19 24 c26 32 24 77 -6
106 l-24 25 -848 -1 c-482 -1 -870 -5 -898 -11z"/>
<path d="M1145 3975 l-25 -24 0 -911 0 -911 25 -24 24 -25 911 0 911 0 24 25
25 24 0 911 0 911 -25 24 -24 25 -911 0 -911 0 -24 -25z m1735 -575 c0 -242
-2 -440 -4 -440 -2 0 -97 36 -210 80 -114 44 -217 80 -230 80 -21 0 -138 -81
-421 -290 l-51 -38 -104 49 c-58 26 -112 48 -121 49 -8 0 -103 -50 -210 -111
-107 -61 -206 -117 -221 -125 l-28 -15 0 601 0 600 800 0 800 0 0 -440z m-167
-551 l167 -64 0 -207 c0 -115 -2 -208 -4 -208 -4 0 -739 340 -743 344 -1 1 70
54 159 118 l161 117 46 -18 c25 -9 121 -46 214 -82z m-438 -379 c264 -122 482
-224 484 -226 2 -2 -329 -4 -737 -4 l-742 0 0 108 1 107 232 132 c217 123 233
130 257 118 14 -7 241 -113 505 -235z"/>
<path d="M1752 3602 c-102 -37 -171 -113 -198 -221 -35 -140 29 -280 160 -349
44 -23 63 -27 141 -27 81 0 95 3 144 30 181 100 219 331 82 488 -73 83 -219
118 -329 79z m162 -156 c64 -27 104 -110 86 -177 -5 -19 -25 -50 -45 -69 -44
-43 -120 -52 -175 -22 -50 27 -84 97 -75 152 16 97 118 154 209 116z"/>
<path d="M3985 3655 c-30 -29 -32 -74 -6 -106 l19 -24 446 -5 446 -5 32 -33
33 -32 3 -285 3 -285 -476 0 -476 0 -24 -25 c-16 -15 -25 -36 -25 -55 0 -19 9
-40 25 -55 l24 -25 476 0 475 0 0 -1055 0 -1056 25 -24 c32 -33 78 -33 110 0
l25 24 0 1414 c0 1609 7 1481 -84 1573 -85 84 -85 84 -593 84 l-434 0 -24 -25z"/>
<path d="M4265 3255 c-16 -15 -25 -36 -25 -55 0 -19 9 -40 25 -55 15 -16 36
-25 55 -25 19 0 40 9 55 25 16 15 25 36 25 55 0 19 -9 40 -25 55 -15 16 -36
25 -55 25 -19 0 -40 -9 -55 -25z"/>
<path d="M4585 3255 c-16 -15 -25 -36 -25 -55 0 -19 9 -40 25 -55 15 -16 36
-25 55 -25 19 0 40 9 55 25 16 15 25 36 25 55 0 19 -9 40 -25 55 -15 16 -36
25 -55 25 -19 0 -40 -9 -55 -25z"/>
<path d="M23 2054 l-26 -26 7 -886 c8 -1016 3 -961 90 -1048 41 -40 66 -56
107 -68 47 -13 335 -16 2181 -22 l2126 -6 26 25 c33 33 34 79 3 111 l-23 23
-2125 8 c-2336 8 -2172 2 -2202 68 -13 27 -16 167 -22 916 l-8 885 -23 23
c-32 31 -78 30 -111 -3z"/>
</g>
</svg>
